<svg width="50" height="50" viewBox="0 0 50 50" fill="none" xmlns="http://www.w3.org/2000/svg">
<path d="M5 0C2.23859 0 0 2.23859 0 5V45C0 47.7614 2.23859 50 5 50H45C47.7614 50 50 47.7614 50 45V28H17.2426L31.2132 41.9706C32.3848 43.1422 32.3848 45.0416 31.2132 46.2132C30.0416 47.3848 28.1422 47.3848 26.9706 46.2132L7.87866 27.1213C6.70709 25.9498 6.70709 24.0502 7.87866 22.8787L26.9706 3.7868C28.1422 2.61523 30.0416 2.61523 31.2132 3.7868C32.3848 4.95837 32.3848 6.85785 31.2132 8.02942L17.2426 22H50V5C50 2.23859 47.7614 0 45 0H5Z" fill="#CECECE"/>
</svg>
