<svg width="50" height="50" viewBox="0 0 50 50" fill="none" xmlns="http://www.w3.org/2000/svg">
<path d="M45 50C47.7614 50 50 47.7614 50 45L50 5C50 2.23859 47.7614 -1.95703e-07 45 -4.37114e-07L5 -3.93402e-06C2.23859 -4.17544e-06 4.17544e-06 2.23858 3.93402e-06 5L2.44784e-06 22L32.7574 22L18.7868 8.02942C17.6152 6.85785 17.6152 4.95837 18.7868 3.7868C19.9584 2.61523 21.8579 2.61523 23.0294 3.7868L42.1213 22.8787C43.2929 24.0502 43.2929 25.9498 42.1213 27.1213L23.0294 46.2132C21.8578 47.3848 19.9584 47.3848 18.7868 46.2132C17.6152 45.0416 17.6152 43.1421 18.7868 41.9706L32.7574 28L1.9233e-06 28L4.37114e-07 45C1.95703e-07 47.7614 2.23859 50 5 50L45 50Z" fill="#CECECE"/>
</svg>
