<svg width="200" height="66" viewBox="0 0 200 66" fill="none" xmlns="http://www.w3.org/2000/svg">
<path d="M3 15.4696C3 15.1721 3.13245 14.8901 3.36138 14.7001L20.7968 0.23048C20.9763 0.0815282 21.2022 0 21.4354 0H179.77C180.003 0 180.229 0.0815284 180.408 0.23048L196.639 13.7001C196.868 13.8901 197 14.1721 197 14.4696V51.5203C197 51.8177 196.868 52.0998 196.639 52.2898L180.396 65.7695C180.216 65.9185 179.991 66 179.757 66H21.4476C21.2144 66 20.9885 65.9185 20.809 65.7695L3.36138 51.2898C3.13245 51.0998 3 50.8177 3 50.5203V15.4696Z" fill="#868686" fill-opacity="0.5"/>
<path d="M0.999999 8C0.447714 8 0 8.44772 0 9V12.513C0 13.0449 0.430979 13.4632 0.921475 13.6691C1.65432 13.9767 2.15385 14.589 2.15385 15.2941C2.15385 16.096 1.50773 16.7778 0.607116 17.028C0.274388 17.1204 0 17.3969 0 17.7422V17.7422C0 18.0876 0.274388 18.364 0.607116 18.4564C1.50773 18.7066 2.15385 19.3885 2.15385 20.1904C2.15385 20.9923 1.50773 21.6741 0.607117 21.9243C0.274389 22.0168 0 22.2932 0 22.6385V22.6385C0 22.9839 0.274389 23.2603 0.607118 23.3527C1.50774 23.6029 2.15385 24.2848 2.15385 25.0867C2.15385 25.8886 1.50774 26.5705 0.607117 26.8206C0.274389 26.9131 0 27.1895 0 27.5349V27.5349C0 27.8802 0.274389 28.1566 0.607117 28.2491C1.50774 28.4993 2.15385 29.1811 2.15385 29.983C2.15385 30.7849 1.50773 31.4668 0.607117 31.717C0.274389 31.8094 0 32.0858 0 32.4312V32.4312C0 32.7765 0.274388 33.0529 0.607116 33.1454C1.50773 33.3956 2.15385 34.0774 2.15385 34.8793C2.15385 35.6812 1.50773 36.3631 0.607116 36.6133C0.274388 36.7057 0 36.9822 0 37.3275V37.3275C0 37.6728 0.274389 37.9493 0.607117 38.0417C1.50774 38.2919 2.15385 38.9737 2.15385 39.7756C2.15385 40.5775 1.50774 41.2594 0.607119 41.5096C0.27439 41.602 0 41.8785 0 42.2238V42.2238C0 42.5691 0.274389 42.8456 0.607118 42.938C1.50774 43.1882 2.15385 43.87 2.15385 44.6719C2.15385 45.4739 1.50774 46.1557 0.607118 46.4059C0.274389 46.4983 0 46.7748 0 47.1201V47.1201C0 47.4654 0.274388 47.7419 0.607116 47.8343C1.50773 48.0845 2.15385 48.7663 2.15385 49.5683C2.15385 50.2734 1.65432 50.8856 0.921474 51.1933C0.430978 51.3992 0 51.8174 0 52.3494V57C0 57.5523 0.447715 58 1 58H199C199.552 58 200 57.5523 200 57V51.5543C200 51.4706 199.93 51.4044 199.846 51.4044V51.4044C198.572 51.4044 197.538 50.5823 197.538 49.5683C197.538 48.5542 198.572 47.7321 199.846 47.7321V47.7321C199.93 47.7321 200 47.6659 200 47.5822V46.5814C200 46.5394 199.965 46.506 199.923 46.5071V46.5071C199.897 46.5077 199.872 46.5081 199.846 46.5081C198.572 46.5081 197.538 45.686 197.538 44.6719C197.538 43.6579 198.572 42.8358 199.846 42.8358V42.8358C199.93 42.8358 200 42.7696 200 42.6859V41.7616C200 41.678 199.93 41.6118 199.846 41.6118V41.6118C198.572 41.6118 197.538 40.7897 197.538 39.7756C197.538 38.7616 198.572 37.9395 199.846 37.9395V37.9395C199.93 37.9395 200 37.8733 200 37.7896V36.7589C200 36.7331 199.978 36.7126 199.953 36.7135V36.7135L199.925 36.7144C199.899 36.7151 199.873 36.7154 199.846 36.7154C198.572 36.7154 197.538 35.8934 197.538 34.8793C197.538 33.8653 198.572 33.0432 199.846 33.0432C199.87 33.0432 199.895 33.0435 199.919 33.0441V33.0441C199.963 33.0452 200 33.0101 200 32.9659V31.8987C200 31.8533 199.962 31.8172 199.916 31.8183V31.8183C199.893 31.8188 199.87 31.8191 199.846 31.8191C198.572 31.8191 197.538 30.9971 197.538 29.983C197.538 28.9689 198.572 28.1469 199.846 28.1469V28.1469C199.93 28.1469 200 28.0807 200 27.997V27.0727C200 26.989 199.93 26.9228 199.846 26.9228V26.9228C198.572 26.9228 197.538 26.1008 197.538 25.0867C197.538 24.0726 198.572 23.2506 199.846 23.2506V23.2506C199.93 23.2506 200 23.1844 200 23.1007V22.1764C200 22.0927 199.93 22.0265 199.846 22.0265V22.0265C198.572 22.0265 197.538 21.2044 197.538 20.1904C197.538 19.1763 198.572 18.3543 199.846 18.3543V18.3543C199.93 18.3543 200 18.288 200 18.2044V17.2801C200 17.1964 199.93 17.1302 199.846 17.1302V17.1302C198.572 17.1302 197.538 16.3081 197.538 15.2941C197.538 14.28 198.572 13.4579 199.846 13.4579V13.4579C199.93 13.4579 200 13.3917 200 13.3081V9C200 8.44772 199.552 8 199 8H0.999999Z" fill="#AAAAAA"/>
<path d="M11 14C11 13.4477 11.4477 13 12 13H189C189.552 13 190 13.4477 190 14V52C190 52.5523 189.552 53 189 53H12C11.4477 53 11 52.5523 11 52V14Z" fill="#F1F1F1" fill-opacity="0.5"/>
<path d="M30.792 35.5403C30.6764 35.9795 30.2792 36.2857 29.8249 36.2857H28.9175C28.4614 36.2857 28.0631 35.9771 27.9492 35.5355L27.2145 32.6876C26.9211 31.55 25.2462 31.7625 25.2462 32.9374V42C25.2462 42.5523 24.7985 43 24.2462 43H24C23.4477 43 23 42.5523 23 42V24C23 23.4477 23.4477 23 24 23H26.313C26.7785 23 27.1825 23.3212 27.2873 23.7748L28.5044 29.0399C28.7429 30.0715 30.2111 30.0735 30.4524 29.0426L31.686 23.7721C31.7918 23.3198 32.1952 23 32.6597 23H34.8567C35.409 23 35.8567 23.4477 35.8567 24V42C35.8567 42.5523 35.409 43 34.8567 43H34.5514C33.9991 43 33.5514 42.5523 33.5514 42V32.7848C33.5514 31.6129 31.8826 31.397 31.5843 32.5303L30.792 35.5403Z" fill="black"/>
<path d="M51.2859 38.1429C51.2859 39.7619 50.8228 40.981 49.8968 41.8C48.9904 42.6 47.6801 43 45.9659 43H44.7836C43.0694 43 41.7493 42.6 40.8232 41.8C39.9168 40.981 39.4636 39.7619 39.4636 38.1429V27.8571C39.4636 26.2381 39.9168 25.0286 40.8232 24.2286C41.7493 23.4095 43.0694 23 44.7836 23H45.9659C47.6801 23 48.9904 23.4095 49.8968 24.2286C50.8228 25.0286 51.2859 26.2381 51.2859 27.8571V38.1429ZM48.7145 27.3143C48.7145 26.7238 48.4879 26.219 48.0348 25.8C47.5816 25.381 46.9905 25.1714 46.2614 25.1714H44.4881C43.759 25.1714 43.1679 25.381 42.7147 25.8C42.2616 26.219 42.035 26.7238 42.035 27.3143V38.6857C42.035 39.2762 42.2616 39.781 42.7147 40.2C43.1679 40.619 43.759 40.8286 44.4881 40.8286H46.2614C46.9905 40.8286 47.5816 40.619 48.0348 40.2C48.4879 39.781 48.7145 39.2762 48.7145 38.6857V27.3143Z" fill="black"/>
<path d="M55.2744 24.2123C55.139 23.589 55.6138 23 56.2516 23H56.7944C57.2701 23 57.6799 23.335 57.7744 23.8012L60.2139 35.8283C60.429 36.8887 61.9405 36.8997 62.171 35.8426L64.7997 23.787C64.8999 23.3276 65.3065 23 65.7767 23H66.2545C66.8981 23 67.3741 23.5991 67.2286 24.226L63.0524 42.226C62.9473 42.6792 62.5435 43 62.0783 43H60.1618C59.6913 43 59.2845 42.672 59.1846 42.2123L55.2744 24.2123Z" fill="black"/>
<path d="M74.9967 40.9143C75.549 40.9143 75.9967 40.4666 75.9967 39.9143V26.0857C75.9967 25.5334 75.549 25.0857 74.9967 25.0857H74.3367C73.7844 25.0857 73.3367 24.638 73.3367 24.0857V24C73.3367 23.4477 73.7844 23 74.3367 23H80.228C80.7803 23 81.228 23.4477 81.228 24V24.0857C81.228 24.638 80.7803 25.0857 80.228 25.0857H79.568C79.0157 25.0857 78.568 25.5334 78.568 26.0857V39.9143C78.568 40.4666 79.0157 40.9143 79.568 40.9143H80.228C80.7803 40.9143 81.228 41.362 81.228 41.9143V42C81.228 42.5523 80.7803 43 80.228 43H74.3367C73.7844 43 73.3367 42.5523 73.3367 42V41.9143C73.3367 41.362 73.7844 40.9143 74.3367 40.9143H74.9967Z" fill="black"/>
<path d="M97.1941 23C97.7464 23 98.1941 23.4477 98.1941 24V24.0857C98.1941 24.638 97.7464 25.0857 97.1941 25.0857H91.8939C91.3416 25.0857 90.8939 25.5334 90.8939 26.0857V30.6286C90.8939 31.1809 91.3416 31.6286 91.8939 31.6286H96.4552C97.0075 31.6286 97.4552 32.0763 97.4552 32.6286V32.7143C97.4552 33.2666 97.0075 33.7143 96.4552 33.7143H91.8939C91.3416 33.7143 90.8939 34.162 90.8939 34.7143V39.9143C90.8939 40.4666 91.3416 40.9143 91.8939 40.9143H97.1941C97.7464 40.9143 98.1941 41.362 98.1941 41.9143V42C98.1941 42.5523 97.7464 43 97.1941 43H89.3225C88.7702 43 88.3225 42.5523 88.3225 42V24C88.3225 23.4477 88.7702 23 89.3225 23H97.1941Z" fill="black"/>
<path d="M124.88 43C124.328 43 123.88 42.5523 123.88 42V26.1714C123.88 25.6191 123.433 25.1714 122.88 25.1714H120.181C119.629 25.1714 119.181 24.7237 119.181 24.1714V24C119.181 23.4477 119.629 23 120.181 23H130.151C130.703 23 131.151 23.4477 131.151 24V24.1714C131.151 24.7237 130.703 25.1714 130.151 25.1714H127.452C126.899 25.1714 126.452 25.6191 126.452 26.1714V42C126.452 42.5523 126.004 43 125.452 43H124.88Z" fill="black"/>
<path d="M138.841 40.9143C139.394 40.9143 139.841 40.4666 139.841 39.9143V26.0857C139.841 25.5334 139.394 25.0857 138.841 25.0857H138.181C137.629 25.0857 137.181 24.638 137.181 24.0857V24C137.181 23.4477 137.629 23 138.181 23H144.073C144.625 23 145.073 23.4477 145.073 24V24.0857C145.073 24.638 144.625 25.0857 144.073 25.0857H143.413C142.86 25.0857 142.413 25.5334 142.413 26.0857V39.9143C142.413 40.4666 142.86 40.9143 143.413 40.9143H144.073C144.625 40.9143 145.073 41.362 145.073 41.9143V42C145.073 42.5523 144.625 43 144.073 43H138.181C137.629 43 137.181 42.5523 137.181 42V41.9143C137.181 41.362 137.629 40.9143 138.181 40.9143H138.841Z" fill="black"/>
<path d="M158.481 35.5403C158.366 35.9795 157.969 36.2857 157.514 36.2857H156.607C156.151 36.2857 155.753 35.9771 155.639 35.5355L154.904 32.6876C154.611 31.55 152.936 31.7625 152.936 32.9374V42C152.936 42.5523 152.488 43 151.936 43H151.689C151.137 43 150.689 42.5523 150.689 42V24C150.689 23.4477 151.137 23 151.689 23H154.003C154.468 23 154.872 23.3212 154.977 23.7748L156.194 29.0399C156.432 30.0715 157.901 30.0735 158.142 29.0426L159.375 23.7721C159.481 23.3198 159.885 23 160.349 23H162.546C163.098 23 163.546 23.4477 163.546 24V42C163.546 42.5523 163.098 43 162.546 43H162.241C161.689 43 161.241 42.5523 161.241 42V32.7848C161.241 31.6129 159.572 31.3969 159.274 32.5303L158.481 35.5403Z" fill="black"/>
<path d="M177 23C177.552 23 178 23.4477 178 24V24.0857C178 24.638 177.552 25.0857 177 25.0857H171.7C171.147 25.0857 170.7 25.5334 170.7 26.0857V30.6286C170.7 31.1809 171.147 31.6286 171.7 31.6286H176.261C176.813 31.6286 177.261 32.0763 177.261 32.6286V32.7143C177.261 33.2666 176.813 33.7143 176.261 33.7143H171.7C171.147 33.7143 170.7 34.162 170.7 34.7143V39.9143C170.7 40.4666 171.147 40.9143 171.7 40.9143H177C177.552 40.9143 178 41.362 178 41.9143V42C178 42.5523 177.552 43 177 43H169.128C168.576 43 168.128 42.5523 168.128 42V24C168.128 23.4477 168.576 23 169.128 23H177Z" fill="black"/>
</svg>
