<svg width="50" height="50" viewBox="0 0 50 50" fill="none" xmlns="http://www.w3.org/2000/svg">
<path d="M0 2C0 0.895431 0.895431 0 2 0H48C49.1046 0 50 0.895431 50 2V9C50 10.1046 49.1046 11 48 11H2C0.895432 11 0 10.1046 0 9V2Z" fill="#CECECE"/>
<path d="M0 21C0 19.8954 0.895431 19 2 19H48C49.1046 19 50 19.8954 50 21V29C50 30.1046 49.1046 31 48 31H2C0.895432 31 0 30.1046 0 29V21Z" fill="#CECECE"/>
<path d="M0 41C0 39.8954 0.895431 39 2 39H48C49.1046 39 50 39.8954 50 41V48C50 49.1046 49.1046 50 48 50H2C0.895432 50 0 49.1046 0 48V41Z" fill="#CECECE"/>
</svg>
