<svg width="331" height="331" viewBox="0 0 331 331" fill="none" xmlns="http://www.w3.org/2000/svg">
<path d="M161.89 19.1756C163.339 16.1391 167.661 16.1391 169.11 19.1756L206.55 97.6375C208.591 101.915 212.657 104.869 217.356 105.488L303.547 116.85C306.883 117.29 308.218 121.4 305.778 123.717L242.726 183.57C239.289 186.833 237.736 191.613 238.599 196.273L254.428 281.757C255.04 285.065 251.544 287.606 248.587 286.001L172.178 244.531C168.013 242.27 162.987 242.27 158.822 244.531L82.4133 286.001C79.4563 287.606 75.9595 285.065 76.5721 281.757L92.4011 196.273C93.264 191.613 91.7109 186.833 88.2737 183.57L25.2217 123.717C22.7815 121.4 24.1172 117.29 27.4528 116.85L113.644 105.488C118.343 104.869 122.409 101.915 124.45 97.6376L161.89 19.1756Z" stroke="white" stroke-width="10"/>
</svg>
