<svg width="331" height="331" viewBox="0 0 331 331" fill="none" xmlns="http://www.w3.org/2000/svg">
<path fill-rule="evenodd" clip-rule="evenodd" d="M165.035 11.9117C161.626 11.7273 158.126 13.4308 156.412 17.0223L118.972 95.4842C117.66 98.2338 115.046 100.133 112.026 100.531L25.8342 111.893C18.329 112.882 15.3238 122.131 20.8141 127.343L83.8662 187.197C86.0758 189.294 87.0742 192.367 86.5195 195.363L70.6905 280.847C69.3122 288.29 77.1799 294.006 83.8332 290.395L160.242 248.925C161.732 248.116 163.393 247.758 165.035 247.849V11.9117Z" fill="white"/>
<path d="M161.89 19.1756C163.339 16.1391 167.661 16.1391 169.11 19.1756L206.55 97.6375C208.591 101.915 212.657 104.869 217.356 105.488L303.547 116.85C306.883 117.29 308.218 121.4 305.778 123.717L242.726 183.57C239.289 186.833 237.736 191.613 238.599 196.273L254.428 281.757C255.04 285.065 251.544 287.606 248.587 286.001L172.178 244.531C168.013 242.27 162.987 242.27 158.822 244.531L82.4133 286.001C79.4563 287.606 75.9595 285.065 76.5721 281.757L92.4011 196.273C93.264 191.613 91.7109 186.833 88.2737 183.57L25.2217 123.717C22.7815 121.4 24.1172 117.29 27.4528 116.85L113.644 105.488C118.343 104.869 122.409 101.915 124.45 97.6376L161.89 19.1756Z" stroke="white" stroke-width="10"/>
</svg>
